<svg xmlns="http://www.w3.org/2000/svg" width="430" height="430" style="width:100%;height:100%;transform:translate3d(0,0,0);content-visibility:visible" viewBox="0 0 430 430"><defs><clipPath id="r"><path d="M0 0h430v430H0z"/></clipPath><clipPath id="E"><path d="M0 0h430v430H0z"/></clipPath><clipPath id="h"><path d="M0 0h430v430H0z"/></clipPath><clipPath id="B"><path d="M0 0h430v430H0z"/></clipPath><clipPath id="j"><path d="M0 0h430v430H0z"/></clipPath><clipPath id="y"><path d="M0 0h430v430H0z"/></clipPath><clipPath id="l"><path d="M0 0h430v430H0z"/></clipPath><clipPath id="n"><path d="M0 0h430v430H0z"/></clipPath><clipPath id="o"><path d="M0 0h430v430H0z"/></clipPath><clipPath id="v"><path d="M0 0h430v430H0z"/></clipPath><clipPath id="p"><path d="M0 0h430v430H0z"/></clipPath><clipPath id="s"><path d="M0 0h430v430H0z"/></clipPath><clipPath id="q"><path d="M0 0h430v430H0z"/></clipPath><filter id="F" width="300%" height="300%" x="-100%" y="-100%"><feGaussianBlur result="filter_result_0"/></filter><filter id="D" width="300%" height="300%" x="-100%" y="-100%"><feGaussianBlur result="filter_result_0" stdDeviation="52.5 52.5"/></filter><filter id="z" width="300%" height="300%" x="-100%" y="-100%"><feGaussianBlur result="filter_result_0"/></filter><filter id="w" width="300%" height="300%" x="-100%" y="-100%"><feGaussianBlur result="filter_result_0"/></filter><filter id="t" width="300%" height="300%" x="-100%" y="-100%"><feGaussianBlur result="filter_result_0"/></filter><mask id="G" mask-type="alpha"><use xmlns:ns1="http://www.w3.org/1999/xlink" ns1:href="#a"/></mask><mask id="C" mask-type="alpha"><use xmlns:ns2="http://www.w3.org/1999/xlink" ns2:href="#b"/></mask><mask id="A" mask-type="alpha"><use xmlns:ns3="http://www.w3.org/1999/xlink" ns3:href="#d"/></mask><mask id="x" mask-type="alpha"><use xmlns:ns4="http://www.w3.org/1999/xlink" ns4:href="#f"/></mask><mask id="u" mask-type="alpha"><use xmlns:ns5="http://www.w3.org/1999/xlink" ns5:href="#g"/></mask><g id="a" fill-opacity="0" clip-path="url(#h)" style="display:none"><path stroke-linecap="round" stroke-linejoin="round" class="secondary" style="display:none"/><path stroke-linecap="round" class="secondary" style="display:none"/><path class="secondary" style="display:none"/><path stroke-linecap="round" stroke-linejoin="round" class="primary" style="display:none"/></g><g id="b" fill-opacity="0" clip-path="url(#j)" style="display:block"><path stroke-linecap="round" stroke-linejoin="round" class="secondary" style="display:none"/><path stroke-linecap="round" class="secondary" style="display:none"/><path class="secondary" style="display:none"/><path stroke="#08A88A" stroke-linecap="round" stroke-linejoin="round" stroke-width="18" d="M-23.091 0c0-42.078 10.347-76.243 23.091-76.243q0 0 0 0c12.744 0 23.091 34.165 23.091 76.243S12.744 76.243 0 76.243-23.091 42.078-23.091 0q0 0 0 0" class="secondary" style="display:block" transform="matrix(.65 0 0 .66 330.078 215.132)"/><path stroke="#08A88A" stroke-linecap="round" stroke-width="18.5" d="M-50.035 0q0 0 0 0c0-46.732 22.421-84.675 50.035-84.675q0 0 0 0c27.614 0 50.035 37.943 50.035 84.675S27.614 84.675 0 84.675-50.035 46.732-50.035 0q0 0 0 0" class="secondary" style="display:block" transform="matrix(.65 0 0 .65 257.53 215.13)"/><path stroke="#08A88A" stroke-width="18.5" d="M0-92.5c51.05 0 92.5 41.45 92.5 92.5S51.05 92.5 0 92.5-92.5 51.05-92.5 0-51.05-92.5 0-92.5z" class="secondary" style="display:block" transform="translate(140 215.005)scale(.649)"/><path stroke="#121331" stroke-linecap="round" stroke-linejoin="round" stroke-width="12" d="M0-167.5c92.443 0 167.5 75.057 167.5 167.5S92.443 167.5 0 167.5-167.5 92.443-167.5 0-92.443-167.5 0-167.5" class="primary" style="display:block" transform="rotate(-45 367.028 -152.028)"/></g><g id="d" fill-opacity="0" stroke-linecap="round" stroke-linejoin="round" clip-path="url(#l)" style="display:none"><g clip-path="url(#n)" style="display:none"><path class="primary" style="display:none"/><path class="primary" style="display:none"/><path class="secondary" style="display:none"/><path class="secondary" style="display:none"/><path class="secondary" style="display:none"/><path class="primary" style="display:none"/><path class="primary" style="display:none"/><path class="primary" style="display:none"/></g><g clip-path="url(#o)" style="display:none"><path class="primary" style="display:none"/><path class="primary" style="display:none"/><path class="secondary" style="display:none"/><path class="secondary" style="display:none"/><path class="secondary" style="display:none"/><path class="primary" style="display:none"/><path class="primary" style="display:none"/><path class="primary" style="display:none"/></g></g><g id="f" fill-opacity="0" stroke-linecap="round" stroke-linejoin="round" clip-path="url(#p)" style="display:none"><path class="primary" style="display:none"/><path class="primary" style="display:none"/><path class="secondary" style="display:none"/><path class="secondary" style="display:none"/><path class="secondary" style="display:none"/><path class="primary" style="display:none"/><path class="primary" style="display:none"/><path class="primary" style="display:none"/></g><g id="g" fill-opacity="0" clip-path="url(#q)" style="display:none"><g stroke-linecap="round" stroke-linejoin="round" style="display:none"><path class="secondary"/><path class="primary"/></g><g stroke-linecap="round" stroke-linejoin="round" style="display:none"><path class="secondary"/><path class="primary"/></g><path class="secondary" style="display:none"/><g stroke-linecap="round" stroke-linejoin="round" style="display:none"><path class="primary"/><path class="primary"/></g></g></defs><g clip-path="url(#r)"><g clip-path="url(#s)" filter="url(#t)" mask="url(#u)" style="display:none"><g class="design"><path class="primary"/></g><g class="design"><path class="secondary"/></g></g><g clip-path="url(#v)" filter="url(#w)" mask="url(#x)" style="display:none"><g class="design"><path class="primary"/></g><g class="design"><path class="secondary"/></g></g><g clip-path="url(#y)" filter="url(#z)" mask="url(#A)" style="display:none"><g class="design"><path class="primary"/></g><g class="design"><path class="secondary"/></g></g><g clip-path="url(#B)" mask="url(#C)" style="display:block"><g filter="url(#D)" transform="rotate(-94 238.762 -16.565)scale(2.4)"><g class="design"><path fill="#4BE1EC" d="M0-250c137.975 0 250 112.025 250 250S137.975 250 0 250-250 137.975-250 0-137.975-250 0-250" class="primary"/></g><g class="design"><path fill="#CB5EEE" d="M113.242-295.384c97.478 0 176.5 79.022 176.5 176.5s-79.022 176.5-176.5 176.5c-43.948 0-74.396-34.057-105.29-60.631-37.631-32.369-71.21-62.338-71.21-115.869 0-97.478 79.022-176.5 176.5-176.5" class="secondary"/></g></g></g><g clip-path="url(#E)" filter="url(#F)" mask="url(#G)" style="display:none"><g class="design"><path class="primary"/></g><g class="design"><path class="secondary"/></g></g></g></svg>